<mxfile host="Electron" agent="Mozilla/5.0 (X11; Linux x86_64) AppleWebKit/537.36 (KHTML, like Gecko) draw.io/24.7.17 Chrome/128.0.6613.36 Electron/32.0.1 Safari/537.36" version="24.7.17">
  <diagram name="Page-1" id="sHVAwtWXOpyKk2sHwQGE">
    <mxGraphModel dx="2037" dy="1397" grid="1" gridSize="10" guides="1" tooltips="1" connect="1" arrows="1" fold="1" page="1" pageScale="1" pageWidth="850" pageHeight="1100" math="0" shadow="0">
      <root>
        <mxCell id="0" />
        <mxCell id="1" parent="0" />
        <mxCell id="xzL7Qeaee645ndqBo75e-2" value="" style="verticalLabelPosition=bottom;aspect=fixed;html=1;shape=mxgraph.salesforce.financial_services2;" vertex="1" parent="1">
          <mxGeometry x="90" y="380" width="170" height="170" as="geometry" />
        </mxCell>
        <mxCell id="xzL7Qeaee645ndqBo75e-3" value="&lt;font style=&quot;font-size: 48px;&quot;&gt;&lt;b style=&quot;&quot;&gt;Finhub&lt;/b&gt;&lt;/font&gt;" style="text;html=1;align=center;verticalAlign=middle;resizable=0;points=[];autosize=1;strokeColor=none;fillColor=none;" vertex="1" parent="1">
          <mxGeometry x="90" y="300" width="180" height="70" as="geometry" />
        </mxCell>
        <mxCell id="xzL7Qeaee645ndqBo75e-4" value="" style="shape=singleArrow;whiteSpace=wrap;html=1;fillColor=#fff2cc;strokeColor=#d6b656;" vertex="1" parent="1">
          <mxGeometry x="270" y="405" width="230" height="105" as="geometry" />
        </mxCell>
        <mxCell id="xzL7Qeaee645ndqBo75e-6" value="" style="sketch=0;points=[[0,0,0],[0.25,0,0],[0.5,0,0],[0.75,0,0],[1,0,0],[0,1,0],[0.25,1,0],[0.5,1,0],[0.75,1,0],[1,1,0],[0,0.25,0],[0,0.5,0],[0,0.75,0],[1,0.25,0],[1,0.5,0],[1,0.75,0]];outlineConnect=0;fontColor=#232F3E;fillColor=#8C4FFF;strokeColor=#ffffff;dashed=0;verticalLabelPosition=bottom;verticalAlign=top;align=center;html=1;fontSize=12;fontStyle=0;aspect=fixed;shape=mxgraph.aws4.resourceIcon;resIcon=mxgraph.aws4.managed_streaming_for_kafka;" vertex="1" parent="1">
          <mxGeometry x="510" y="360" width="150" height="150" as="geometry" />
        </mxCell>
        <mxCell id="xzL7Qeaee645ndqBo75e-7" value="&lt;font style=&quot;font-size: 48px;&quot;&gt;&lt;b style=&quot;&quot;&gt;Kafka&lt;/b&gt;&lt;/font&gt;" style="text;html=1;align=center;verticalAlign=middle;resizable=0;points=[];autosize=1;strokeColor=none;fillColor=none;" vertex="1" parent="1">
          <mxGeometry x="420" y="600" width="150" height="70" as="geometry" />
        </mxCell>
        <mxCell id="xzL7Qeaee645ndqBo75e-8" value="" style="sketch=0;points=[[0,0,0],[0.25,0,0],[0.5,0,0],[0.75,0,0],[1,0,0],[0,1,0],[0.25,1,0],[0.5,1,0],[0.75,1,0],[1,1,0],[0,0.25,0],[0,0.5,0],[0,0.75,0],[1,0.25,0],[1,0.5,0],[1,0.75,0]];outlineConnect=0;fontColor=#232F3E;fillColor=#8C4FFF;strokeColor=#ffffff;dashed=0;verticalLabelPosition=bottom;verticalAlign=top;align=center;html=1;fontSize=12;fontStyle=0;aspect=fixed;shape=mxgraph.aws4.resourceIcon;resIcon=mxgraph.aws4.managed_streaming_for_kafka;" vertex="1" parent="1">
          <mxGeometry x="580" y="470" width="150" height="150" as="geometry" />
        </mxCell>
        <mxCell id="xzL7Qeaee645ndqBo75e-9" value="" style="shape=singleArrow;whiteSpace=wrap;html=1;fillColor=#fff2cc;strokeColor=#d6b656;" vertex="1" parent="1">
          <mxGeometry x="745" y="410.25" width="400" height="105" as="geometry" />
        </mxCell>
        <mxCell id="xzL7Qeaee645ndqBo75e-12" value="" style="image;sketch=0;aspect=fixed;html=1;points=[];align=center;fontSize=12;image=img/lib/mscae/Stream_Analytics.svg;" vertex="1" parent="1">
          <mxGeometry x="805" y="380.25" width="198.08" height="154.5" as="geometry" />
        </mxCell>
        <mxCell id="xzL7Qeaee645ndqBo75e-13" value="&lt;font style=&quot;font-size: 48px;&quot;&gt;&lt;b style=&quot;&quot;&gt;Spark&lt;/b&gt;&lt;/font&gt;" style="text;html=1;align=center;verticalAlign=middle;resizable=0;points=[];autosize=1;strokeColor=none;fillColor=none;" vertex="1" parent="1">
          <mxGeometry x="865" y="260" width="160" height="70" as="geometry" />
        </mxCell>
        <mxCell id="xzL7Qeaee645ndqBo75e-14" value="" style="outlineConnect=0;dashed=0;verticalLabelPosition=bottom;verticalAlign=top;align=center;html=1;shape=mxgraph.aws3.android;fillColor=#FFD44F;gradientColor=none;" vertex="1" parent="1">
          <mxGeometry x="330" y="421" width="73.5" height="84" as="geometry" />
        </mxCell>
        <mxCell id="xzL7Qeaee645ndqBo75e-15" value="" style="sketch=0;points=[[0,0,0],[0.25,0,0],[0.5,0,0],[0.75,0,0],[1,0,0],[0,1,0],[0.25,1,0],[0.5,1,0],[0.75,1,0],[1,1,0],[0,0.25,0],[0,0.5,0],[0,0.75,0],[1,0.25,0],[1,0.5,0],[1,0.75,0]];outlineConnect=0;fontColor=#232F3E;fillColor=#C925D1;strokeColor=#ffffff;dashed=0;verticalLabelPosition=bottom;verticalAlign=top;align=center;html=1;fontSize=12;fontStyle=0;aspect=fixed;shape=mxgraph.aws4.resourceIcon;resIcon=mxgraph.aws4.managed_apache_cassandra_service;" vertex="1" parent="1">
          <mxGeometry x="1170" y="370" width="190" height="190" as="geometry" />
        </mxCell>
        <mxCell id="xzL7Qeaee645ndqBo75e-16" value="&lt;font style=&quot;font-size: 48px;&quot;&gt;&lt;b style=&quot;&quot;&gt;Cassandra&lt;/b&gt;&lt;/font&gt;" style="text;html=1;align=center;verticalAlign=middle;resizable=0;points=[];autosize=1;strokeColor=none;fillColor=none;" vertex="1" parent="1">
          <mxGeometry x="1130" y="580" width="270" height="70" as="geometry" />
        </mxCell>
        <mxCell id="xzL7Qeaee645ndqBo75e-17" value="" style="image;aspect=fixed;html=1;points=[];align=center;fontSize=12;image=img/lib/azure2/other/Grafana.svg;" vertex="1" parent="1">
          <mxGeometry x="1600" y="366" width="198.34" height="154" as="geometry" />
        </mxCell>
        <mxCell id="xzL7Qeaee645ndqBo75e-18" value="" style="shape=singleArrow;whiteSpace=wrap;html=1;fillColor=#fff2cc;strokeColor=#d6b656;" vertex="1" parent="1">
          <mxGeometry x="1380" y="390" width="220" height="130" as="geometry" />
        </mxCell>
        <mxCell id="xzL7Qeaee645ndqBo75e-19" value="&lt;font style=&quot;font-size: 48px;&quot;&gt;&lt;b style=&quot;&quot;&gt;Grafana&lt;/b&gt;&lt;/font&gt;" style="text;html=1;align=center;verticalAlign=middle;resizable=0;points=[];autosize=1;strokeColor=none;fillColor=none;" vertex="1" parent="1">
          <mxGeometry x="1510" y="240" width="200" height="70" as="geometry" />
        </mxCell>
        <mxCell id="xzL7Qeaee645ndqBo75e-20" value="" style="verticalLabelPosition=bottom;shadow=0;dashed=0;align=center;html=1;verticalAlign=top;strokeWidth=1;shape=mxgraph.mockup.graphics.pieChart;strokeColor=#008cff;parts=10,20,35;partColors=#e0e0e0,#d0d0d0,#c0c0c0,#b0b0b0,#a0a0a0;strokeWidth=2;" vertex="1" parent="1">
          <mxGeometry x="1790" y="380" width="120" height="110" as="geometry" />
        </mxCell>
        <mxCell id="xzL7Qeaee645ndqBo75e-21" value="" style="verticalLabelPosition=bottom;shadow=0;dashed=0;align=center;html=1;verticalAlign=top;strokeWidth=1;shape=mxgraph.mockup.graphics.gauge;fillColor=#ffffff;strokeColor=#999999;gaugePos=25;scaleColors=#bbddff,#ddeeff,#99ccff;gaugeLabels=,,;needleColor=#008cff;" vertex="1" parent="1">
          <mxGeometry x="1710" y="300" width="140" height="140" as="geometry" />
        </mxCell>
        <mxCell id="xzL7Qeaee645ndqBo75e-22" value="CPU[%]" style="strokeWidth=1;shadow=0;dashed=0;align=center;html=1;shape=mxgraph.mockup.graphics.anchor;fontColor=#666666;" vertex="1" parent="xzL7Qeaee645ndqBo75e-21">
          <mxGeometry x="35" y="28" width="70" height="28" as="geometry" />
        </mxCell>
        <mxCell id="xzL7Qeaee645ndqBo75e-23" value="0" style="strokeWidth=1;shadow=0;dashed=0;align=center;html=1;shape=mxgraph.mockup.graphics.anchor;align=left;fontColor=#666666;" vertex="1" parent="xzL7Qeaee645ndqBo75e-21">
          <mxGeometry x="28" y="105" width="70" height="28" as="geometry" />
        </mxCell>
        <mxCell id="xzL7Qeaee645ndqBo75e-24" value="100" style="strokeWidth=1;shadow=0;dashed=0;align=center;html=1;shape=mxgraph.mockup.graphics.anchor;align=right;fontColor=#666666;" vertex="1" parent="xzL7Qeaee645ndqBo75e-21">
          <mxGeometry x="42" y="105" width="70" height="28" as="geometry" />
        </mxCell>
        <mxCell id="xzL7Qeaee645ndqBo75e-26" value="" style="verticalLabelPosition=bottom;shadow=0;dashed=0;align=center;html=1;verticalAlign=top;strokeWidth=1;shape=mxgraph.mockup.graphics.lineChart;strokeColor=none;strokeColor2=#666666;strokeColor3=#008cff;strokeColor4=#dddddd;" vertex="1" parent="1">
          <mxGeometry x="1650" y="495" width="215" height="100" as="geometry" />
        </mxCell>
      </root>
    </mxGraphModel>
  </diagram>
</mxfile>
